<svg width="116" height="116" viewBox="0 0 116 116" fill="none" xmlns="http://www.w3.org/2000/svg">
  <rect x="0.5" y="0.5" width="23" height="23" fill="#161A1D" stroke="#22272B"/>
  <rect x="0.5" y="23.5" width="23" height="23" fill="#161A1D" stroke="#22272B"/>
  <rect x="0.5" y="46.5" width="23" height="23" fill="#161A1D" stroke="#22272B"/>
  <rect x="0.5" y="69.5" width="23" height="23" fill="#161A1D" stroke="#22272B"/>
  <rect x="0.5" y="92.5" width="23" height="23" fill="#161A1D" stroke="#22272B"/>
  <rect x="23.5" y="0.5" width="23" height="23" fill="#161A1D" stroke="#22272B"/>
  <rect x="23.5" y="23.5" width="23" height="23" fill="#161A1D" stroke="#22272B"/>
  <rect x="23.5" y="46.5" width="23" height="23" fill="#161A1D" stroke="#22272B"/>
  <rect x="23.5" y="69.5" width="23" height="23" fill="#161A1D" stroke="#22272B"/>
  <rect x="23.5" y="92.5" width="23" height="23" fill="#161A1D" stroke="#22272B"/>
  <rect x="46.5" y="0.5" width="23" height="23" fill="#161A1D" stroke="#22272B"/>
  <rect x="46.5" y="23.5" width="23" height="23" fill="#161A1D" stroke="#22272B"/>
  <rect x="46.5" y="46.5" width="23" height="23" fill="#161A1D" stroke="#22272B"/>
  <rect x="46.5" y="69.5" width="23" height="23" fill="#161A1D" stroke="#22272B"/>
  <rect x="46.5" y="92.5" width="23" height="23" fill="#161A1D" stroke="#22272B"/>
  <rect x="69.5" y="0.5" width="23" height="23" fill="#161A1D" stroke="#22272B"/>
  <rect x="69.5" y="23.5" width="23" height="23" fill="#161A1D" stroke="#22272B"/>
  <rect x="69.5" y="46.5" width="23" height="23" fill="#161A1D" stroke="#22272B"/>
  <rect x="69.5" y="69.5" width="23" height="23" fill="#161A1D" stroke="#22272B"/>
  <rect x="69.5" y="92.5" width="23" height="23" fill="#161A1D" stroke="#22272B"/>
  <rect x="92.5" y="0.5" width="23" height="23" fill="#161A1D" stroke="#22272B"/>
  <rect x="92.5" y="23.5" width="23" height="23" fill="#161A1D" stroke="#22272B"/>
  <rect x="92.5" y="46.5" width="23" height="23" fill="#161A1D" stroke="#22272B"/>
  <rect x="92.5" y="69.5" width="23" height="23" fill="#161A1D" stroke="#22272B"/>
  <rect x="92.5" y="92.5" width="23" height="23" fill="#161A1D" stroke="#22272B"/>
  <rect width="116" height="1" fill="#F6FBFD" fill-opacity="0.1"/>
  <rect y="1" width="1" height="115" fill="#F6FBFD" fill-opacity="0.1"/>
</svg>
